<svg width="16" height="13" viewBox="0 0 16 13" fill="none" xmlns="http://www.w3.org/2000/svg">
<path d="M0.666626 6.74857C0.666626 6.40051 0.925267 6.11287 1.26084 6.06734L1.35413 6.06107L13.4395 6.06162L9.07339 1.71338C8.80433 1.44547 8.80339 1.01017 9.07129 0.741112C9.31485 0.496509 9.69674 0.473497 9.96631 0.672617L10.0436 0.739017L15.5894 6.26102C15.6249 6.29633 15.6557 6.33455 15.6818 6.37491C15.6892 6.38706 15.6967 6.39949 15.7038 6.41217C15.7104 6.42304 15.7163 6.43432 15.7219 6.44573C15.7297 6.46233 15.7373 6.47948 15.7441 6.49698C15.7497 6.51047 15.7544 6.5236 15.7587 6.53682C15.7637 6.55323 15.7687 6.57071 15.7729 6.58845C15.776 6.60084 15.7785 6.61277 15.7807 6.62474C15.7838 6.64255 15.7864 6.66098 15.7882 6.67963C15.7898 6.69386 15.7908 6.70795 15.7913 6.72206C15.7915 6.73062 15.7916 6.73957 15.7916 6.74857L15.7913 6.7752C15.7908 6.78869 15.7898 6.80217 15.7885 6.81562L15.7916 6.74857C15.7916 6.79195 15.7876 6.8344 15.7799 6.87555C15.7781 6.88538 15.776 6.89547 15.7737 6.90552C15.7688 6.92622 15.7631 6.94615 15.7566 6.96569C15.7535 6.97539 15.7497 6.98577 15.7458 6.99606C15.7377 7.01675 15.729 7.03647 15.7194 7.05568C15.7149 7.06471 15.7099 7.07416 15.7047 7.08353C15.6961 7.09879 15.6873 7.11331 15.6779 7.12745C15.6713 7.13746 15.664 7.14788 15.6563 7.15814L15.6504 7.16606C15.6319 7.19026 15.6118 7.21319 15.5903 7.2347L15.5894 7.23534L10.0436 12.7583C9.77456 13.0262 9.33926 13.0253 9.07133 12.7562C8.82776 12.5117 8.80637 12.1297 9.00662 11.8609L9.07335 11.784L13.4376 7.43662L1.35413 7.43607C0.97443 7.43607 0.666626 7.12826 0.666626 6.74857Z" fill="white"/>
</svg>
