<svg width="30" height="31" viewBox="0 0 30 31" fill="none" xmlns="http://www.w3.org/2000/svg">
<path fill-rule="evenodd" clip-rule="evenodd" d="M17.6516 14.4747H21.1114C21.636 14.4747 22.0482 14.0481 22.0482 13.5337C22.0482 13.0068 21.636 12.5928 21.1114 12.5928H17.6516C17.127 12.5928 16.7148 13.0068 16.7148 13.5337C16.7148 14.0481 17.127 14.4747 17.6516 14.4747ZM25.2207 7.95197C25.9826 7.95197 26.4822 8.21544 26.9818 8.79256C27.4815 9.36968 27.5689 10.1977 27.4565 10.9492L26.2699 19.1795C26.0451 20.7615 24.6961 21.927 23.1099 21.927H9.48299C7.82178 21.927 6.44785 20.6486 6.31046 18.9925L5.16135 5.31604L3.27532 4.98984C2.77571 4.90202 2.42599 4.41272 2.51342 3.91088C2.60085 3.39775 3.08797 3.05775 3.60007 3.13428L6.579 3.58468C7.00367 3.66121 7.31592 4.01125 7.35339 4.43782L7.59071 7.24814C7.62818 7.65087 7.95293 7.95197 8.35262 7.95197H25.2207ZM9.28289 23.91C8.23371 23.91 7.38437 24.7631 7.38437 25.817C7.38437 26.8583 8.23371 27.7114 9.28289 27.7114C10.3196 27.7114 11.1689 26.8583 11.1689 25.817C11.1689 24.7631 10.3196 23.91 9.28289 23.91ZM23.3344 23.91C22.2853 23.91 21.4359 24.7631 21.4359 25.817C21.4359 26.8583 22.2853 27.7114 23.3344 27.7114C24.3711 27.7114 25.2205 26.8583 25.2205 25.817C25.2205 24.7631 24.3711 23.91 23.3344 23.91Z" fill="#D8D8D8"/>
</svg>
