<svg width="30" height="31" viewBox="0 0 30 31" fill="none" xmlns="http://www.w3.org/2000/svg">
<path fill-rule="evenodd" clip-rule="evenodd" d="M19.8123 3.73909C20.601 3.73909 21.3885 3.8485 22.1373 4.09561C26.751 5.57088 28.4135 10.5499 27.0248 14.902C26.2373 17.126 24.9498 19.1557 23.2635 20.8141C20.8498 23.1131 18.201 25.1539 15.3498 26.9119L15.0373 27.0976L14.7123 26.8996C11.851 25.1539 9.18728 23.1131 6.75103 20.8018C5.07603 19.1434 3.78728 17.126 2.98728 14.902C1.57478 10.5499 3.23728 5.57088 7.90103 4.06979C8.26353 3.94686 8.63728 3.8608 9.01228 3.81285H9.16228C9.51353 3.76245 9.86228 3.73909 10.2123 3.73909H10.3498C11.1373 3.76245 11.8998 3.89768 12.6385 4.14479H12.7123C12.7623 4.16815 12.7998 4.19396 12.8248 4.21732C13.101 4.30461 13.3623 4.40296 13.6123 4.53819L14.0873 4.74719C14.2021 4.8074 14.3309 4.89939 14.4422 4.9789C14.5128 5.02927 14.5763 5.07463 14.6248 5.10372C14.6452 5.11555 14.6659 5.12745 14.6868 5.13945C14.794 5.20099 14.9056 5.26509 14.9998 5.33607C16.3885 4.29232 18.0748 3.72679 19.8123 3.73909ZM23.1373 12.5907C23.6498 12.5772 24.0873 12.1727 24.1248 11.6552V11.5089C24.1623 9.78648 23.101 8.22638 21.4873 7.62397C20.9748 7.45063 20.4123 7.72232 20.2248 8.23867C20.0498 8.75501 20.3248 9.32054 20.8498 9.50372C21.651 9.79877 22.1873 10.5745 22.1873 11.4339V11.472C22.1635 11.7535 22.2498 12.0252 22.4248 12.2342C22.5998 12.4432 22.8623 12.5649 23.1373 12.5907Z" fill="#D8D8D8"/>
</svg>
