<svg width="24" height="25" viewBox="0 0 24 25" fill="none" xmlns="http://www.w3.org/2000/svg">
<path d="M24 12.6703C24 19.1885 18.6274 24.4725 12 24.4725C5.37258 24.4725 0 19.1885 0 12.6703C0 6.15215 5.37258 0.868134 12 0.868134C18.6274 0.868134 24 6.15215 24 12.6703Z" fill="white"/>
<g clip-path="url(#clip0_4_498)">
<path d="M12.0007 6.76923C10.3698 6.76923 10.1666 6.77697 9.52834 6.80353C8.88747 6.83451 8.45396 6.93224 8.07147 7.0783C7.67696 7.23025 7.34096 7.43199 7.00909 7.76024C6.67496 8.08664 6.46796 8.41711 6.31571 8.8051C6.16721 9.1813 6.06784 9.60765 6.03634 10.238C6.00746 10.8661 6.00146 11.0656 6.00146 12.6696C6.00146 14.2736 6.00934 14.4735 6.03634 15.1012C6.06784 15.7297 6.16721 16.1579 6.31571 16.5341C6.47021 16.9221 6.67534 17.2525 7.00909 17.5789C7.34096 17.9075 7.67696 18.1111 8.07147 18.2609C8.45396 18.4051 8.88934 18.5047 9.52834 18.5356C10.167 18.564 10.3698 18.5699 12.0007 18.5699C13.6316 18.5699 13.8348 18.5622 14.4731 18.5356C15.1121 18.5047 15.5475 18.4047 15.93 18.2609C16.3245 18.1089 16.6605 17.9072 16.9923 17.5789C17.3265 17.2525 17.5335 16.9239 17.6857 16.5341C17.8323 16.1579 17.9336 15.7297 17.9651 15.1012C17.994 14.4731 18 14.2736 18 12.6696C18 11.0656 17.9921 10.8657 17.9651 10.238C17.9336 9.60949 17.832 9.17908 17.6857 8.8051C17.5312 8.41711 17.3261 8.08664 16.9923 7.76024C16.6605 7.43162 16.3263 7.22804 15.93 7.0783C15.5475 6.93224 15.1121 6.83451 14.4731 6.80353C13.8345 6.77513 13.6316 6.76923 12.0007 6.76923V6.76923ZM12.0007 7.83142C13.6023 7.83142 13.7936 7.83917 14.4266 7.86572C15.0105 7.89265 15.3285 7.98854 15.5396 8.06968C15.8212 8.17701 16.0181 8.30388 16.2311 8.51115C16.44 8.71659 16.569 8.91243 16.6781 9.18941C16.7606 9.39706 16.8581 9.70981 16.8855 10.2841C16.9125 10.9066 16.9203 11.0951 16.9203 12.6699C16.9203 14.2448 16.9125 14.4333 16.8832 15.0558C16.8517 15.6301 16.7542 15.9428 16.6721 16.1505C16.5585 16.4275 16.4317 16.6211 16.2225 16.8306C16.0113 17.036 15.8103 17.1629 15.531 17.2702C15.3225 17.3514 15 17.4473 14.4138 17.4742C13.7775 17.5007 13.59 17.5085 11.9842 17.5085C10.3785 17.5085 10.1913 17.5007 9.55422 17.472C8.97034 17.441 8.64822 17.3451 8.43709 17.2643C8.15209 17.1526 7.95672 17.0279 7.74747 16.8221C7.53634 16.6145 7.40209 16.4168 7.29859 16.142C7.21459 15.9369 7.11859 15.6198 7.08746 15.0433C7.06609 14.4248 7.05596 14.233 7.05596 12.6611C7.05596 11.0899 7.06609 10.8978 7.08746 10.2715C7.11859 9.69506 7.21459 9.37861 7.29859 9.17281C7.40209 8.89214 7.53672 8.70036 7.74747 8.49271C7.95634 8.28728 8.15209 8.15451 8.43709 8.0505C8.64822 7.96973 8.96247 7.87384 9.54859 7.84507C10.185 7.82257 10.3725 7.81446 11.976 7.81446L12.0007 7.83142ZM12.0007 9.64121C10.2978 9.64121 8.92084 10.9974 8.92084 12.6703C8.92084 14.3451 10.2997 15.6994 12.0007 15.6994C13.7036 15.6994 15.0806 14.3433 15.0806 12.6703C15.0806 10.9955 13.7017 9.64121 12.0007 9.64121ZM12.0007 14.6372C10.8952 14.6372 10.0008 13.7576 10.0008 12.6703C10.0008 11.583 10.8952 10.7034 12.0007 10.7034C13.1062 10.7034 14.0006 11.583 14.0006 12.6703C14.0006 13.7576 13.1062 14.6372 12.0007 14.6372ZM15.9247 9.52024C15.9247 9.91229 15.6003 10.2287 15.2036 10.2287C14.805 10.2287 14.4832 9.91193 14.4832 9.52024C14.4832 9.1304 14.8072 8.81322 15.2036 8.81322C15.6 8.81322 15.9247 9.1304 15.9247 9.52024Z" fill="#242424"/>
</g>
<defs>
<clipPath id="clip0_4_498">
<rect width="12" height="11.8022" fill="white" transform="translate(6 6.76923)"/>
</clipPath>
</defs>
</svg>
