<svg width="22" height="22" viewBox="0 0 22 22" fill="none" xmlns="http://www.w3.org/2000/svg">
<path fill-rule="evenodd" clip-rule="evenodd" d="M3.12339 3.79522C3.08099 3.84285 3.03588 3.88673 3.01083 3.91111C3.00795 3.9139 3.00534 3.91644 3.00303 3.9187L2.99954 3.92211C2.95707 3.96359 2.9157 4.00401 2.8702 4.0519C2.77875 4.14816 2.67595 4.26949 2.58048 4.42417C2.39583 4.72337 2.21305 5.18753 2.25647 5.89839C2.34607 7.36525 3.40884 9.98443 7.71486 14.2893C12.0204 18.5936 14.6391 19.6549 16.1054 19.7436C16.816 19.7867 17.2798 19.6036 17.5789 19.4188C17.7335 19.3232 17.8548 19.2204 17.9511 19.1288C17.9989 19.0834 18.0392 19.0421 18.0806 18.9996L18.0843 18.9958C18.0866 18.9935 18.0891 18.9909 18.0919 18.9881C18.1163 18.963 18.1603 18.9177 18.2081 18.8752C18.9566 18.1249 19.3773 17.5853 19.5869 17.1753C19.7819 16.7939 19.7713 16.5744 19.712 16.3953C19.6346 16.1612 19.4338 15.8775 19.0157 15.4488C18.8135 15.2414 18.5805 15.0193 18.3114 14.7634L18.2961 14.7488C18.0341 14.4996 17.7431 14.2228 17.4354 13.9152C17.4354 13.9152 17.4354 13.9153 17.4354 13.9152C16.9095 13.3897 16.5656 13.3191 16.3133 13.3258C16.159 13.3299 15.9882 13.3652 15.7704 13.4325C15.6617 13.466 15.5495 13.5048 15.4235 13.5489C15.411 13.5533 15.3983 13.5577 15.3855 13.5622C15.273 13.6016 15.1495 13.6449 15.0233 13.6858C14.4462 13.8727 13.7225 14.0412 12.8406 13.8252C11.9747 13.613 11.0544 13.0554 10.0015 12.0028C8.94859 10.9502 8.39062 10.0299 8.17808 9.16411C7.96158 8.28219 8.12951 7.55839 8.31596 6.98106C8.35673 6.85483 8.39987 6.73134 8.43916 6.61889C8.44365 6.60602 8.4481 6.59329 8.45249 6.58071C8.4965 6.4546 8.53516 6.34238 8.56863 6.23361C8.63569 6.01566 8.67092 5.84476 8.67485 5.69036C8.68128 5.43777 8.61028 5.09363 8.08424 4.56773C7.7724 4.25598 7.49236 3.96124 7.24066 3.69632L7.23575 3.69116C6.97976 3.42173 6.75792 3.18845 6.55066 2.9858C6.1221 2.56679 5.83908 2.36571 5.60556 2.28805C5.42754 2.22886 5.20877 2.21777 4.82702 2.41305C4.41661 2.623 3.87593 3.04461 3.12339 3.79522ZM8.32347 2.65826C8.5776 2.92574 8.84656 3.20882 9.14475 3.50692C9.88864 4.25061 10.1936 4.97214 10.1744 5.72855C10.1654 6.07865 10.0874 6.39809 10.0023 6.6747C9.9597 6.81321 9.91256 6.94934 9.86874 7.07492C9.8643 7.08763 9.8599 7.10023 9.85554 7.11273C9.81548 7.22741 9.77833 7.33381 9.74337 7.44205C9.59302 7.90759 9.51471 8.31721 9.63482 8.8065C9.75888 9.31186 10.1204 10.0006 11.062 10.942C12.0037 11.8834 12.6923 12.2445 13.1975 12.3683C13.6865 12.4881 14.0958 12.4095 14.561 12.2588C14.6693 12.2237 14.7757 12.1865 14.8905 12.1463C14.9029 12.1419 14.9153 12.1375 14.9279 12.1331C15.0534 12.0892 15.1895 12.042 15.3279 11.9992C15.6044 11.9139 15.9237 11.8355 16.2738 11.8263C17.0302 11.8064 17.7518 12.1109 18.4958 12.8543C18.7901 13.1486 19.0698 13.4145 19.3341 13.666L19.3452 13.6765C19.6096 13.9281 19.8641 14.1702 20.0896 14.4015C20.5272 14.8501 20.9435 15.3419 21.1361 15.9241C21.347 16.5613 21.2595 17.1989 20.9224 17.8582C20.6017 18.4855 20.0402 19.1646 19.2495 19.9551C19.2344 19.9702 19.2187 19.9847 19.2023 19.9984C19.2012 19.9998 19.189 20.0116 19.1576 20.0437L19.1509 20.0506C19.1107 20.0918 19.0533 20.1507 18.9848 20.2158C18.8377 20.3556 18.6346 20.5297 18.3675 20.6948C17.8232 21.0312 17.0547 21.3039 16.0148 21.2409C13.9801 21.1177 11.0258 19.7203 6.65435 15.3501C2.2823 10.9792 0.883557 8.0248 0.759261 5.98984C0.695734 4.94979 0.967909 4.18099 1.304 3.6364C1.46891 3.36918 1.64292 3.1659 1.78272 3.01876C1.84797 2.95008 1.9069 2.89253 1.94811 2.85228C1.95041 2.85004 1.95265 2.84785 1.95484 2.84572C1.98727 2.81404 1.99903 2.80188 2.00028 2.80086C2.01404 2.78451 2.02851 2.76875 2.04363 2.75364C2.83609 1.96112 3.51621 1.39873 4.14389 1.07764C4.80369 0.740115 5.44156 0.652763 6.07886 0.864684C6.66066 1.05815 7.15162 1.47555 7.5993 1.91325C7.82902 2.13785 8.06962 2.39109 8.31949 2.65408L8.32347 2.65826Z" fill="#FF6600"/>
</svg>
