<svg width="12" height="12" viewBox="0 0 12 12" fill="none" xmlns="http://www.w3.org/2000/svg">
<path fill-rule="evenodd" clip-rule="evenodd" d="M5.85395 1.625C5.80087 1.625 5.6702 1.63958 5.60079 1.77842L4.53562 3.90817C4.36704 4.24475 4.04212 4.47867 3.66645 4.53233L1.28179 4.87592C1.12429 4.89867 1.07062 5.01533 1.05429 5.06433C1.0397 5.11158 1.01637 5.23175 1.12487 5.33558L2.8492 6.99225C3.12395 7.2565 3.24879 7.63742 3.18345 8.01017L2.77745 10.3493C2.75237 10.4957 2.84395 10.5809 2.88479 10.6101C2.92795 10.6427 3.04345 10.7075 3.18637 10.6328L5.31845 9.52742C5.65445 9.35417 6.05462 9.35417 6.38945 9.52742L8.52096 10.6322C8.66446 10.7063 8.77995 10.6416 8.8237 10.6101C8.86454 10.5809 8.95612 10.4957 8.93104 10.3493L8.52387 8.01017C8.45854 7.63742 8.58337 7.2565 8.85812 6.99225L10.5825 5.33558C10.6915 5.23175 10.6682 5.111 10.653 5.06433C10.6373 5.01533 10.5836 4.89867 10.4261 4.87592L8.04145 4.53233C7.66637 4.47867 7.34145 4.24475 7.17287 3.90758L6.10654 1.77842C6.0377 1.63958 5.90704 1.625 5.85395 1.625ZM3.0522 11.5417C2.81129 11.5417 2.57212 11.4658 2.36737 11.3165C2.01387 11.0575 1.84062 10.6299 1.91587 10.1994L2.32187 7.86025C2.33704 7.77333 2.30729 7.68525 2.24312 7.62342L0.518788 5.96675C0.201455 5.66283 0.087705 5.21367 0.221872 4.79658C0.357205 4.37483 0.715372 4.07325 1.15695 4.01025L3.54162 3.66667C3.63379 3.65383 3.71312 3.59725 3.75279 3.51675L4.81854 1.38642C5.01512 0.993833 5.41179 0.75 5.85395 0.75C6.29612 0.75 6.69279 0.993833 6.88937 1.38642L7.9557 3.51617C7.99595 3.59725 8.0747 3.65383 8.16629 3.66667L10.551 4.01025C10.9925 4.07325 11.3507 4.37483 11.486 4.79658C11.6202 5.21367 11.5059 5.66283 11.1885 5.96675L9.4642 7.62342C9.40004 7.68525 9.37087 7.77333 9.38604 7.85967L9.79262 10.1994C9.86729 10.6305 9.69404 11.0581 9.33995 11.3165C8.9812 11.5796 8.51395 11.6152 8.11787 11.4087L5.98695 10.3044C5.90354 10.2612 5.80379 10.2612 5.72037 10.3044L3.58945 11.4093C3.41912 11.4979 3.23537 11.5417 3.0522 11.5417Z" fill="white"/>
</svg>
