<svg width="60" height="60" viewBox="0 0 60 60" fill="none" xmlns="http://www.w3.org/2000/svg">
<path d="M22.6646 44.1981H2.43164V43.3873C2.43164 40.7042 3.49748 38.1311 5.39469 36.2339C7.2919 34.3367 9.86507 33.2708 12.5481 33.2708C15.2312 33.2708 17.8044 34.3367 19.7016 36.2339C21.5988 38.1311 22.6646 40.7042 22.6646 43.3873V44.1981ZM4.09137 42.5765H21.0049C20.8 40.4759 19.8206 38.5267 18.2574 37.1086C16.6942 35.6904 14.6591 34.9049 12.5485 34.9049C10.4379 34.9049 8.40288 35.6904 6.83969 37.1086C5.2765 38.5267 4.29709 40.4759 4.09218 42.5765H4.09137Z" fill="white"/>
<path d="M12.5604 51.823C10.325 51.8195 8.18217 50.93 6.60152 49.3494C5.02088 47.7687 4.13136 45.6259 4.12793 43.3905H5.74955C5.74955 45.1948 6.4663 46.9252 7.74213 48.2011C9.01796 49.4769 10.7484 50.1936 12.5527 50.1936C14.357 50.1936 16.0874 49.4769 17.3632 48.2011C18.639 46.9252 19.3558 45.1948 19.3558 43.3905H20.9774C20.9774 45.6243 20.0911 47.7668 18.513 49.3477C16.935 50.9287 14.7941 51.8189 12.5604 51.823Z" fill="white"/>
<path d="M12.5611 48.2814C11.2635 48.2799 10.0196 47.7637 9.10209 46.8463C8.1846 45.9288 7.66849 44.6848 7.66699 43.3873H9.28862C9.28862 44.2522 9.63219 45.0817 10.2438 45.6932C10.8553 46.3048 11.6848 46.6484 12.5497 46.6484C13.4146 46.6484 14.2441 46.3048 14.8556 45.6932C15.4672 45.0817 15.8108 44.2522 15.8108 43.3873H17.4324C17.4339 44.6818 16.9219 45.9241 16.0087 46.8416C15.0954 47.7591 13.8556 48.2768 12.5611 48.2814Z" fill="white"/>
<path d="M42.4514 51.8246C41.1611 51.8198 39.889 51.52 38.7323 50.9482C37.5756 50.3764 36.565 49.5477 35.7776 48.5255C34.9903 47.5032 34.4472 46.3145 34.1897 45.0501C33.9323 43.7858 33.9673 42.4793 34.2922 41.2305L35.8603 41.6465C35.6136 42.5836 35.5695 43.5625 35.731 44.518C35.8925 45.4734 36.2558 46.3835 36.7967 47.1875C37.3377 47.9915 38.0438 48.6709 38.868 49.1805C39.6922 49.6901 40.6156 50.0181 41.5766 50.1427C42.5376 50.2672 43.5141 50.1855 44.441 49.9029C45.3679 49.6204 46.2239 49.1434 46.9519 48.504C47.68 47.8645 48.2633 47.0771 48.6631 46.1944C49.0629 45.3117 49.2699 44.3539 49.2703 43.3849C49.2683 42.795 49.1939 42.2077 49.0489 41.636L50.6219 41.2427C50.7992 41.9433 50.8899 42.663 50.8919 43.3857C50.8889 45.6232 49.9986 47.7681 48.4163 49.3501C46.834 50.9321 44.6889 51.822 42.4514 51.8246Z" fill="white"/>
<path d="M42.4505 48.2141C41.6111 48.2115 40.7868 47.9904 40.0588 47.5725C39.3309 47.1546 38.7243 46.5543 38.2988 45.8308C37.8733 45.1072 37.6436 44.2853 37.6323 43.446C37.621 42.6066 37.8284 41.7788 38.2343 41.0441L39.6516 41.8322C39.3828 42.3193 39.2457 42.8681 39.2538 43.4244C39.2619 43.9807 39.4149 44.5252 39.6978 45.0043C39.9806 45.4834 40.3835 45.8805 40.8667 46.1563C41.3498 46.4322 41.8966 46.5773 42.4529 46.5773C43.0093 46.5773 43.556 46.4322 44.0392 46.1563C44.5224 45.8805 44.9252 45.4834 45.2081 45.0043C45.4909 44.5252 45.6439 43.9807 45.6521 43.4244C45.6602 42.8681 45.5231 42.3193 45.2543 41.8322L46.6716 41.0441C47.0772 41.7789 47.2844 42.6066 47.273 43.4458C47.2616 44.2851 47.0318 45.1069 46.6064 45.8304C46.181 46.5539 45.5745 47.1541 44.8466 47.5721C44.1188 47.99 43.2947 48.2113 42.4554 48.2141H42.4505Z" fill="white"/>
<path d="M52.4777 42.253H21.6475V40.6314H50.7239C50.3766 37.8173 49.3191 35.1379 47.6509 32.8451C45.9827 30.5524 43.7587 28.7218 41.188 27.5254L41.0348 27.4508L41.7402 25.9913L41.895 26.0659C44.8589 27.4463 47.3984 29.596 49.2493 32.2912C51.1001 34.9863 52.1945 38.1285 52.4185 41.3903L52.4777 42.253Z" fill="white"/>
<path d="M11.1636 34.3557H9.54199V30.6981C9.54876 25.6803 11.2447 20.8109 14.3566 16.8746L15.306 15.6762L16.5766 16.6832L15.6271 17.8816C12.7417 21.5311 11.1692 26.0458 11.1628 30.6981L11.1636 34.3557Z" fill="white"/>
<path d="M24.2308 34.8868C23.4869 34.8824 22.7445 34.8214 22.0099 34.7043C20.9926 34.5881 20.0098 34.2646 19.1223 33.7538C18.2348 33.243 17.4615 32.5557 16.8499 31.7343C13.001 26.1632 17.8772 17.7689 18.0864 17.4138L19.4827 18.2384C19.4364 18.3195 14.9251 26.096 18.1854 30.8124C18.6726 31.4509 19.2851 31.9832 19.9853 32.3768C20.6854 32.7704 21.4585 33.0169 22.2572 33.1014C24.8048 33.4922 26.6689 33.1824 27.9581 32.1543C29.2083 31.1562 29.9299 29.4268 30.101 27.0154L31.7227 27.1305C31.5175 30.013 30.5924 32.13 28.9732 33.4216C27.6111 34.4471 25.9339 34.9652 24.2308 34.8868Z" fill="white"/>
<path d="M19.6971 18.6381H17.9766V8.12756H19.6971C21.0486 8.12907 22.3443 8.66661 23.3 9.62227C24.2556 10.5779 24.7932 11.8736 24.7947 13.2251V13.5405C24.7932 14.892 24.2556 16.1877 23.3 17.1434C22.3443 18.0991 21.0486 18.6366 19.6971 18.6381ZM19.5982 17.0165H19.6971C20.6186 17.0154 21.502 16.6488 22.1535 15.9972C22.805 15.3455 23.1714 14.462 23.1722 13.5405V13.2251C23.1714 12.3035 22.8049 11.4199 22.1532 10.7682C21.5015 10.1165 20.6179 9.75004 19.6963 9.74919H19.5982V17.0165Z" fill="white"/>
<path d="M18.0002 17.4876C16.9116 17.4876 15.8675 17.0551 15.0978 16.2853C14.328 15.5155 13.8955 14.4715 13.8955 13.3828C13.8955 12.2942 14.328 11.2501 15.0978 10.4804C15.8675 9.71057 16.9116 9.27811 18.0002 9.27811C18.3393 9.28042 18.6766 9.32787 19.0032 9.41919L18.5759 10.9841C18.3884 10.9321 18.1948 10.9048 18.0002 10.903C17.3417 10.903 16.7101 11.1646 16.2444 11.6303C15.7787 12.0959 15.5171 12.7275 15.5171 13.3861C15.5171 14.0446 15.7787 14.6762 16.2444 15.1419C16.7101 15.6076 17.3417 15.8692 18.0002 15.8692C18.1948 15.8673 18.3884 15.8401 18.5759 15.7881L19.0032 17.353C18.6763 17.4421 18.3391 17.4874 18.0002 17.4876Z" fill="white"/>
<path d="M40.7835 27.5295H30.8559C30.1083 27.5295 29.3913 27.2325 28.8627 26.7039C28.3341 26.1752 28.0371 25.4583 28.0371 24.7107C28.0371 23.9631 28.3341 23.2461 28.8627 22.7175C29.3913 22.1889 30.1083 21.8919 30.8559 21.8919H40.7835C41.5311 21.8919 42.248 22.1889 42.7766 22.7175C43.3053 23.2461 43.6023 23.9631 43.6023 24.7107C43.6023 25.4583 43.3053 26.1752 42.7766 26.7039C42.248 27.2325 41.5311 27.5295 40.7835 27.5295ZM30.8559 23.5135C30.5384 23.5135 30.2339 23.6396 30.0094 23.8642C29.7849 24.0887 29.6587 24.3932 29.6587 24.7107C29.6587 25.0282 29.7849 25.3327 30.0094 25.5572C30.2339 25.7817 30.5384 25.9078 30.8559 25.9078H40.7835C41.101 25.9078 41.4055 25.7817 41.63 25.5572C41.8545 25.3327 41.9806 25.0282 41.9806 24.7107C41.9806 24.3932 41.8545 24.0887 41.63 23.8642C41.4055 23.6396 41.101 23.5135 40.7835 23.5135H30.8559Z" fill="white"/>
<path d="M49.1332 33.0981L47.9648 31.9735L54.8908 24.7727V22.7027H56.5124V25.4262L49.1332 33.0981Z" fill="white"/>
<path d="M59.1896 23.5135H43.7842V9.72974H59.1896V23.5135ZM45.4058 21.8919H57.5679V11.3514H45.4058V21.8919Z" fill="white"/>
<path d="M27.4742 15.7768H23.7363V14.1551H27.4733C27.5787 14.162 27.6843 14.1471 27.7837 14.1115C27.8831 14.0759 27.9742 14.0203 28.0512 13.9481C28.1282 13.8759 28.1896 13.7886 28.2316 13.6918C28.2736 13.5949 28.2952 13.4904 28.2952 13.3849C28.2952 13.2793 28.2736 13.1748 28.2316 13.078C28.1896 12.9811 28.1282 12.8938 28.0512 12.8216C27.9742 12.7495 27.8831 12.6938 27.7837 12.6582C27.6843 12.6226 27.5787 12.6078 27.4733 12.6146H23.7363V10.993H27.4733C27.7949 10.9811 28.1155 11.0342 28.416 11.1491C28.7165 11.264 28.9908 11.4383 29.2225 11.6615C29.4541 11.8848 29.6384 12.1525 29.7642 12.4486C29.8901 12.7447 29.955 13.0631 29.955 13.3849C29.955 13.7066 29.8901 14.025 29.7642 14.3211C29.6384 14.6172 29.4541 14.8849 29.2225 15.1082C28.9908 15.3315 28.7165 15.5058 28.416 15.6206C28.1155 15.7355 27.7949 15.7886 27.4733 15.7768H27.4742Z" fill="white"/>
<path d="M40.7812 21.8919H44.9099V23.5135H40.7812V21.8919Z" fill="white"/>
<path d="M51.082 10.5405H52.7037V13.7838H51.082V10.5405Z" fill="white"/>
</svg>
