<svg width="60" height="60" viewBox="0 0 60 60" fill="none" xmlns="http://www.w3.org/2000/svg">
<g clip-path="url(#clip0_31_4925)">
<path d="M57.6237 13.2388L30.3813 0.0873327C30.1398 -0.0291516 29.8586 -0.0291516 29.6171 0.0873327L2.37469 13.2388C2.07094 13.3854 1.87793 13.693 1.87793 14.0303V45.9696C1.87793 46.3069 2.07094 46.6145 2.37469 46.7611L29.617 59.9126C29.7377 59.9708 29.8685 60 29.9992 60C30.1298 60 30.2605 59.9708 30.3813 59.9126L57.6237 46.7611C57.9274 46.6145 58.1204 46.3069 58.1204 45.9696V14.0304C58.1204 13.6929 57.9273 13.3855 57.6237 13.2388ZM29.9992 1.85487L55.2199 14.0303L47.9089 17.5598C47.8627 17.5245 47.8138 17.4919 47.7601 17.466L22.7107 5.37343L29.9992 1.85487ZM20.7258 6.36718L45.9098 18.5249L40.7518 21.015L15.5782 8.86221L20.7258 6.36718ZM46.4991 20.1923V29.3969L41.6811 31.7228V22.5182L46.4991 20.1923ZM56.3626 45.4181L30.8781 57.7207V27.7334L36.9569 24.7988C37.3941 24.5877 37.5773 24.0624 37.3663 23.6251C37.1552 23.1881 36.6299 23.0046 36.1927 23.2158L29.9992 26.2058L27.5621 25.0293C27.1249 24.818 26.5996 25.0015 26.3885 25.4386C26.1775 25.8757 26.3607 26.4012 26.7979 26.6122L29.1203 27.7334V57.7207L3.63574 45.4179V15.4306L23.042 24.7991C23.1652 24.8587 23.2953 24.8868 23.4234 24.8868C23.7502 24.8868 24.064 24.7037 24.2155 24.3898C24.4266 23.9527 24.2433 23.4272 23.8062 23.2162L4.77844 14.0303L13.5095 9.8153L39.9111 22.561C39.915 22.5664 39.9193 22.5712 39.9233 22.5764V33.1232C39.9233 33.4256 40.0788 33.7068 40.335 33.8677C40.4773 33.957 40.6396 34.0021 40.8023 34.0021C40.9327 34.0021 41.0633 33.9731 41.1844 33.9147L47.7601 30.7402C48.0639 30.5936 48.2569 30.2861 48.2569 29.9487V19.3438L56.3626 15.4307V45.4181Z" fill="white"/>
<path d="M10.89 42.0093L6.89212 40.0793C6.45477 39.868 5.92954 40.0515 5.71849 40.4886C5.50743 40.9257 5.69071 41.4512 6.12782 41.6623L10.1257 43.5922C10.2488 43.6518 10.379 43.6799 10.5071 43.6799C10.8338 43.6799 11.1477 43.4968 11.2992 43.1829C11.5104 42.7457 11.3271 42.2204 10.89 42.0093Z" fill="white"/>
<path d="M14.5696 39.6143L6.8979 35.9107C6.46068 35.6996 5.93533 35.8829 5.72427 36.3201C5.51333 36.7572 5.69661 37.2827 6.13372 37.4938L13.8054 41.1974C13.9286 41.2568 14.0588 41.285 14.1868 41.285C14.5136 41.285 14.8274 41.102 14.9789 40.788C15.19 40.3507 15.0067 39.8252 14.5696 39.6143Z" fill="white"/>
</g>
<defs>
<clipPath id="clip0_31_4925">
<rect width="60" height="60" fill="white"/>
</clipPath>
</defs>
</svg>
