<svg width="60" height="60" viewBox="0 0 60 60" fill="none" xmlns="http://www.w3.org/2000/svg">
<path d="M31.9909 39.4971H47.9858C48.5856 39.4971 48.9855 39.0972 48.9855 38.4974V29.5002C48.9855 28.9004 48.5856 28.5006 47.9858 28.5006H31.9909C31.391 28.5006 30.9912 28.9004 30.9912 29.5002V38.4974C30.9911 39.0971 31.391 39.4971 31.9909 39.4971ZM32.9905 30.4999H46.9862V37.4977H32.9905V30.4999Z" fill="white"/>
<path d="M4.9977 26.501H12.9952C13.595 26.501 13.9949 26.1012 13.9949 25.5014C13.9949 24.9016 13.595 24.5018 12.9952 24.5018H4.9977C4.39788 24.5018 3.99805 24.9016 3.99805 25.5014C3.99805 26.1012 4.39788 26.501 4.9977 26.501Z" fill="white"/>
<path d="M16.9948 26.501H24.9923C25.5921 26.501 25.992 26.1012 25.992 25.5014C25.992 24.9016 25.5921 24.5018 24.9923 24.5018H16.9948C16.395 24.5018 15.9951 24.9016 15.9951 25.5014C15.9951 26.1012 16.395 26.501 16.9948 26.501Z" fill="white"/>
<path d="M4.9977 30.4999H17.9936C18.5934 30.4999 18.9932 30.1 18.9932 29.5002C18.9932 28.9004 18.5934 28.5006 17.9936 28.5006H4.9977C4.39788 28.5006 3.99805 28.9004 3.99805 29.5002C3.99805 30.1 4.39788 30.4999 4.9977 30.4999Z" fill="white"/>
<path d="M24.9929 28.5004H21.9938C21.394 28.5004 20.9941 28.9003 20.9941 29.5001C20.9941 30.0999 21.394 30.4997 21.9938 30.4997H24.9929C25.5927 30.4997 25.9925 30.0999 25.9925 29.5001C25.9925 28.9003 25.5927 28.5004 24.9929 28.5004Z" fill="white"/>
<path d="M59.0815 16.1044C58.3818 15.2047 57.4821 14.7048 56.3824 14.6048L53.9831 14.3141V11.5057V9.50643C53.9831 7.30716 52.1837 5.50772 49.9844 5.50772H3.99871C1.79944 5.5076 0 7.30704 0 9.50643V11.5058V19.5034V41.4965C0 43.3021 1.21333 44.8374 2.86469 45.3294C2.81432 47.3517 4.34442 49.1073 6.39808 49.294L52.5836 54.4924C52.6836 54.4924 52.8836 54.4924 52.9835 54.4924C54.9829 54.4924 56.7823 52.9928 56.9822 51.0935L59.9813 19.0035C60.0812 18.0037 59.7813 16.904 59.0815 16.1044ZM1.99941 12.5055H51.9838V15.1047V18.5036H1.99941V12.5055ZM3.99871 7.50702H49.9843C51.084 7.50702 51.9837 8.40674 51.9837 9.50643V10.5061H1.99941V9.50643C1.99941 8.40674 2.89913 7.50702 3.99871 7.50702ZM1.99941 41.4964V20.5029H51.9838V41.4964C51.9838 42.5961 51.0841 43.4958 49.9844 43.4958H4.09876H3.99883C2.89913 43.4958 1.99941 42.5961 1.99941 41.4964ZM57.9818 18.6036L54.9828 50.6935C54.8829 51.7932 53.8831 52.5929 52.7835 52.493L6.69787 47.2946C5.69822 47.1947 4.99836 46.3949 4.89843 45.4952H49.9843C52.1836 45.4952 53.983 43.6958 53.983 41.4965V19.5033V16.2043L56.2823 16.4043C56.7822 16.4043 57.282 16.7042 57.5819 17.104C57.8819 17.5039 58.0819 18.1037 57.9818 18.6036Z" fill="white"/>
</svg>
