<svg width="60" height="60" viewBox="0 0 60 60" fill="none" xmlns="http://www.w3.org/2000/svg">
<g clip-path="url(#clip0_31_4958)">
<path d="M53.2171 36.1913H51.8785V29.0661C51.8785 26.4055 49.7139 24.2409 47.0534 24.2409H45.4361L50.1527 15.3075C50.6438 14.3773 50.743 13.3115 50.4315 12.3067C50.1196 11.3008 49.4339 10.4766 48.5005 9.98592L30.3635 0.453118C28.4401 -0.557996 26.0502 0.181589 25.0363 2.10151L13.3473 24.2409H10.4354C7.77485 24.2409 5.61035 26.4055 5.61035 29.0661V55.1751C5.61035 57.8357 7.77485 60.0003 10.4354 60.0003H47.0535C49.714 60.0003 51.8786 57.8357 51.8786 55.1751V48.0499H53.2172C53.8644 48.0499 54.3891 47.5251 54.3891 46.878V37.3632C54.389 36.716 53.8643 36.1913 53.2171 36.1913ZM27.1089 3.19583C27.5204 2.41652 28.4912 2.11686 29.2731 2.52773L47.4103 12.0605C47.7887 12.2594 48.0667 12.5933 48.1929 13.0005C48.3188 13.4065 48.2787 13.8371 48.0802 14.2132L42.7859 24.2409H39.6402L42.6304 18.5773C42.7757 18.3021 42.8056 17.9805 42.7133 17.6832C42.6212 17.386 42.4146 17.1377 42.1392 16.9928C41.3715 16.5893 40.8075 15.9117 40.5513 15.0851C40.2957 14.2604 40.3771 13.3856 40.7803 12.6218C40.9256 12.3465 40.9555 12.0249 40.8633 11.7276C40.7712 11.4304 40.5645 11.1821 40.2892 11.0372L34.1387 7.80467C33.5667 7.50408 32.859 7.7231 32.5571 8.29487C31.7227 9.87529 29.7544 10.4833 28.1696 9.65052C27.5976 9.34993 26.8899 9.56908 26.588 10.1407L19.1435 24.2408H15.9977L27.1089 3.19583ZM38.3125 15.779C38.6362 16.8234 39.2445 17.7297 40.0667 18.4129L36.9898 24.2409H21.7939L28.172 12.1607C30.2828 12.7522 32.5688 12.0458 33.9743 10.3662L38.2683 12.6232C37.9782 13.6486 37.9895 14.7369 38.3125 15.779ZM49.5348 55.1751C49.5348 56.5434 48.4217 57.6565 47.0535 57.6565H10.4354C9.06722 57.6565 7.95415 56.5434 7.95415 55.1751V29.0661C7.95415 27.6978 9.06722 26.5847 10.4354 26.5847H47.0535C48.4217 26.5847 49.5348 27.6978 49.5348 29.0661V36.1913H44.959C41.6897 36.1913 39.0297 38.8512 39.0297 42.1207C39.0297 45.3901 41.6896 48.05 44.959 48.05H49.5348V55.1751ZM52.0452 45.7061H44.9589C42.9818 45.7061 41.3734 44.0975 41.3734 42.1205C41.3734 40.1435 42.9818 38.535 44.9589 38.535H52.0452V45.7061Z" fill="white"/>
</g>
<defs>
<clipPath id="clip0_31_4958">
<rect width="60" height="60" fill="white"/>
</clipPath>
</defs>
</svg>
